<svg id="Layer_1" data-name="Layer 1" xmlns="http://www.w3.org/2000/svg" viewBox="0 0 512 512">
    <defs>
        <style>.cls-1{fill:#ffc84d;}.cls-2{fill:#bf7b17;}.cls-3{fill:#ffb232;}</style>
    </defs>
    <title>cookie-flat</title>
    <path class="cls-1"
          d="M346.67,90.67a163.08,163.08,0,0,0-73.91,17.45A10.66,10.66,0,0,0,269,124a42.27,42.27,0,0,1,8.36,25.33A42.93,42.93,0,0,1,247,190.16a10.67,10.67,0,0,0-7.43,12A34.5,34.5,0,0,1,240,208a42.72,42.72,0,0,1-42.67,42.67c-1.42,0-2.79-.09-4.17-.22a10.67,10.67,0,0,0-11.67,11c2.82,89.68,75.37,159.93,165.17,159.93C437.83,421.33,512,347.17,512,256S437.83,90.67,346.67,90.67Z"/>
    <path class="cls-1"
          d="M154.67,346.67a37.37,37.37,0,0,0-27.53,12.23,31.36,31.36,0,0,0-9.8-1.56,32,32,0,1,0,0,64h37.33a37.33,37.33,0,1,0,0-74.67Z"/>
    <circle class="cls-2" cx="362.67" cy="272" r="16" transform="translate(-86.11 336.11) rotate(-45)"/>
    <circle class="cls-2" cx="400" cy="330.67" r="16" transform="translate(-116.66 379.69) rotate(-45)"/>
    <circle class="cls-2" cx="440" cy="269.33" r="13.33" transform="translate(-61.57 390.01) rotate(-45)"/>
    <circle class="cls-2" cx="328" cy="344" r="13.33" transform="translate(-147.18 332.69) rotate(-45)"/>
    <circle class="cls-2" cx="416" cy="213.33" r="16" transform="translate(-29.01 356.64) rotate(-45)"/>
    <circle class="cls-2" cx="277.33" cy="298.67" r="16" transform="translate(-129.96 283.58) rotate(-45)"/>
    <circle class="cls-2" cx="317.33" cy="221.33" r="13.33" transform="translate(-63.56 289.22) rotate(-45)"/>
    <circle class="cls-2" cx="368" cy="170.67" r="16" transform="translate(-12.89 310.2) rotate(-45)"/>
    <path class="cls-3"
          d="M406.83,102A162.41,162.41,0,0,1,230.61,374.13a164.78,164.78,0,0,0,116.06,47.21C437.83,421.33,512,347.17,512,256,512,186.06,468.32,126.17,406.83,102Z"/>
    <path class="cls-1" d="M21.33,421.33H10.67a10.67,10.67,0,1,1,0-21.33H21.33a10.67,10.67,0,1,1,0,21.33Z"/>
    <path class="cls-1" d="M501.33,421.33H490.67a10.67,10.67,0,1,1,0-21.33h10.67a10.67,10.67,0,1,1,0,21.33Z"/>
    <path class="cls-1" d="M453.33,421.33H58.67a10.67,10.67,0,1,1,0-21.33H453.33a10.67,10.67,0,1,1,0,21.33Z"/>
</svg>